# AST/ASF file generated using VICON BodyLanguage
# -----------------------------------------------
:version 1.10
:name VICON
:units
  mass 1.0
  length 0.45
  angle deg
:documentation
   .ast/.asf automatically generated from VICON data using
   VICON BodyBuilder and BodyLanguage model FoxedUp or BRILLIANT.MOD
:root
   order TX TY TZ RX RY RZ
   axis XYZ
   position 0 0 0  
   orientation 0 0 0 
:bonedata
  begin
     id 1 
     name lhipjoint
     direction 0.521689 -0.742065 0.420928 
     length 2.47002 
     axis 0 0 0  XYZ
  end
  begin
     id 2 
     name lfemur
     direction 0.34202 -0.939693 0  
     length 7.24654  
     axis 0 0 20  XYZ
    dof rx ry rz
    limits (-160.0 20.0)
           (-70.0 70.0)
           (-60.0 70.0)
  end
  begin
     id 3 
     name ltibia
     direction 0.34202 -0.939693 0   
     length 8.04849   
     axis 0 0 20   XYZ
    dof rx
    limits (-10.0 170.0)
  end
  begin
     id 4 
     name lfoot
     direction 0.0745411 -0.2048 0.975961   
     length 1.72367   
     axis -90 7.62852e-016 20   XYZ
    dof rx rz
    limits (-45.0 90.0)
           (-70.0 20.0)
  end
  begin
     id 5 
     name ltoes
     direction 1.53556e-011 -4.21901e-011 1   
     length 0.87311   
     axis -90 7.62852e-016 20   XYZ
    dof rx
    limits (-90.0 20.0)
  end
  begin
     id 6 
     name rhipjoint
     direction -0.52849 -0.738415 0.418857   
     length 2.48223  
     axis 0 0 0  XYZ 
  end
  begin
     id 7 
     name rfemur
     direction -0.34202 -0.939693 0   
     length 7.15571   
     axis 0 0 -20   XYZ
    dof rx ry rz
    limits (-160.0 20.0)
           (-70.0 70.0)
           (-70.0 60.0)
  end
  begin
     id 8 
     name rtibia
     direction -0.34202 -0.939693 0   
     length 7.81659   
     axis 0 0 -20   XYZ
    dof rx
    limits (-10.0 170.0)
 end
 begin
     id 9 
     name rfoot
     direction -0.0917348 -0.252039 0.963359   
     length 1.84382  
     axis -90 -7.62852e-016 -20   XYZ
    dof rx rz
    limits (-45.0 90.0)
           (-20.0 70.0)
  end
  begin
     id 10 
     name rtoes
     direction -1.53551e-011 -4.21879e-011 1   
     length 0.927771   
     axis -90 -7.62852e-016 -20   XYZ
    dof rx
    limits (-90.0 20.0)
  end
  begin
     id 11 
     name lowerback
     direction 0.00583058 0.999822 0.0179296   
     length 2.1429   
     axis 0 0 0   XYZ
    dof rx ry rz
    limits (-20.0 45.0)
           (-30.0 30.0)
           (-30.0 30.0)
  end
  begin
     id 12 
     name upperback
     direction -0.0137999 0.999752 -0.0175071   
     length 2.14252   
     axis 0 0 0   XYZ
    dof rx ry rz
    limits (-20.0 45.0)
           (-30.0 30.0)
           (-30.0 30.0)
  end
  begin
     id 13 
     name thorax
     direction -0.0158036 0.99955 -0.0254909   
     length 2.1383   
     axis 0 0 0   XYZ
    dof rx ry rz
    limits (-20.0 45.0)
           (-30.0 30.0)
           (-30.0 30.0)
  end
  begin
     id 14 
     name lowerneck
     direction -0.0101179 0.999403 -0.0330262   
     length 1.65808   
     axis 0 0 0   XYZ
    dof rx ry rz
    limits (-20.0 45.0)
           (-30.0 30.0)
           (-30.0 30.0)
  end
  begin
     id 15 
     name upperneck
     direction 0.0497734 0.995978 -0.074501   
     length 1.5897   
     axis 0 0 0   XYZ
    dof rx ry rz
    limits (-20.0 45.0)
           (-30.0 30.0)
           (-30.0 30.0)
  end
  begin
     id 16
     name head
     direction 0.0189524 0.999519 -0.0245438  
     length 1.74024  
     axis 0 0 0   XYZ
    dof rx ry rz
    limits (-20.0 45.0)
           (-30.0 30.0)
           (-30.0 30.0)
  end
  begin
     id 17 
     name lclavicle
     direction 0.945604 0.324422 0.0241537  
     length 3.59089  
     axis 0 0 0   XYZ
    dof ry rz
    limits (-20.0 10.0)
           (0.0 20.0)
  end
  begin
     id 18 
     name lhumerus
     direction 1 -4.48964e-011 -2.63524e-027   
     length 5.2391   
     axis 180 -30 -90   XYZ
    dof rx ry rz
    limits (-60.0 90.0)
           (-90.0 90.0)
           (-90.0 90.0)
  end
  begin
     id 19
     name lradius
     direction 1 -4.48969e-011 3.86978e-028   
     length 3.31467   
     axis 180 -30 -90   XYZ
    dof rx
    limits (-10.0 170.0)
  end
  begin
     id 20
     name lwrist
     direction 1 -4.48963e-011 7.20928e-028   
     length 1.65734   
     axis -5.52449e-016 90 90   XYZ
    dof ry
    limits (-180.0 0.0)
 end
  begin
     id 21 
     name lhand
     direction 1 -4.48964e-011 1.44186e-027   
     length 0.9659   
     axis -9.20027e-016 90 90   XYZ
    dof rx rz
    limits (-90.0 90.0)
           (-45.0 45.0)
  end
  begin
     id 22 
     name lfingers
     direction 1 -4.48965e-011 2.88371e-027   
     length 0.778733   
     axis -1.84005e-015 90 90   XYZ
    dof rx
    limits (0.0 90.0)
  end
  begin
     id 23
     name lthumb
     direction 0.707107 -6.34931e-011 0.707107   
     length 1.11811   
     axis -90 45 2.85299e-015   XYZ
    dof rx rz
    limits (-45.0 45.0)
           (-45.0 45.0)
  end
  begin
     id 24 
     name rclavicle
     direction -0.923762 0.370785 0.0958234   
     length 3.54196  
     axis 0 0 0   XYZ 
    dof ry rz
    limits (-10.0 20.0)
           (-20.0 0.0)
  end
  begin
     id 25 
     name rhumerus
     direction -1 -4.48966e-011 1.18702e-017  
     length 5.30252   
     axis 180 30 90   XYZ
    dof rx ry rz
    limits (-90.0 60.0)
           (-90.0 90.0)
           (-90.0 90.0)
  end
  begin
     id 26 
     name rradius
     direction -1 -4.48966e-011 4.46736e-027   
     length 3.67875   
     axis 180 30 90   XYZ
    dof rx
    limits (-10.0 170.0)
  end
  begin
     id 27 
     name rwrist
     direction -1 -4.48966e-011 7.20928e-028   
     length 1.83937   
     axis -5.52449e-016 -90 -90   XYZ
    dof ry
    limits (-180.0 0.0)
  end
  begin
     id 28
     name rhand
     direction -1 -4.48973e-011 1.44186e-027   
     length 0.594811   
     axis -9.20027e-016 -90 -90   XYZ
    dof rx rz
    limits (-90.0 90.0)
           (-45.0 45.0)
  end
  begin
     id 29
     name rfingers
     direction -1 -4.48963e-011 2.88371e-027   
     length 0.479552   
     axis -1.84005e-015 -90 -90   XYZ
    dof rx
    limits (0.0 90.0)
  end
  begin
     id 30
     name rthumb
     direction -0.707107 -6.34932e-011 0.707107   
     length 0.688544   
     axis -90 -45 -2.85299e-015   XYZ
    dof rx rz
    limits (-45.0 45.0)
           (-45.0 45.0)
  end
:hierarchy
  begin
    root lhipjoint rhipjoint lowerback
    lhipjoint lfemur
    lfemur ltibia
    ltibia lfoot
    lfoot ltoes
    rhipjoint rfemur
    rfemur rtibia
    rtibia rfoot
    rfoot rtoes
    lowerback upperback
    upperback thorax
    thorax lowerneck lclavicle rclavicle
    lowerneck upperneck
    upperneck head
    lclavicle lhumerus
    lhumerus lradius
    lradius lwrist
    lwrist lhand lthumb
    lhand lfingers
    rclavicle rhumerus
    rhumerus rradius
    rradius rwrist
    rwrist rhand rthumb
    rhand rfingers
  end

#!OML:ASF E:\acrobat2\Project_11_07_03\Capture day 1\Session 1\Acrobat.ASF
:FULLY-SPECIFIED
:DEGREES
304
root 9.51342 18.3071 -33.379 306.182 -79.158 -301.486
lowerback -1.96644 -1.17083 5.21517
upperback -3.54579 -1.61255 1.94446
thorax -2.63869 -0.944508 -0.907384
lowerneck 1.2641 2.15407 -0.18519
upperneck -3.72911 2.4537 -8.66247
head -1.28237 1.31557 -2.76593
rclavicle -4.47266e-015 -4.77083e-014
rhumerus -9.44013 -36.1925 -6.33134
rradius 20.4384
rwrist 13.3604
rhand -9.27962 -51.8206
rfingers 7.12502
rthumb 16.6773 -81.1241
lclavicle -4.47266e-015 -4.77083e-014
lhumerus 5.86584 12.2006 4.279
lradius 21.5793
lwrist 7.44856
lhand -10.9286 -6.74857
lfingers 7.12502
lthumb 15.0893 22.6815
rfemur 10.6512 25.0685 10.094
rtibia -5.68735
rfoot -40.1867 -36.9109
rtoes 23.8078
lfemur -1.65223 -5.41314 0.390398
ltibia -0.960079
lfoot -27.01 23.397
ltoes 54.8067
305
root 9.52291 18.3039 -33.3636 306.937 -79.1662 -302.202
lowerback -1.88979 -1.16649 5.29811
upperback -3.55566 -1.60094 2.04958
thorax -2.69115 -0.941312 -0.843147
lowerneck 1.3792 2.22097 -0.310128
upperneck -3.92488 2.51239 -8.78037
head -1.36314 1.35462 -2.78943
rclavicle -2.56432e-014 2.22639e-014
rhumerus -9.36501 -36.665 -6.36571
rradius 20.3773
rwrist 13.3937
rhand -9.43919 -51.8618
rfingers 7.12502
rthumb 16.5236 -81.1782
lclavicle -2.56432e-014 2.22639e-014
lhumerus 5.78666 12.0108 4.09289
lradius 21.6844
lwrist 7.72207
lhand -11.1277 -6.61284
lfingers 7.12502
lthumb 14.8975 22.8315
rfemur 10.7611 25.5263 10.2957
rtibia -5.80467
rfoot -40.8038 -37.2428
rtoes 24.1407
lfemur -1.92499 -4.9808 0.672395
ltibia -0.863707
lfoot -27.7894 24.07
ltoes 55.1937
306
root 9.52887 18.3018 -33.3494 306.996 -79.0002 -302.134
lowerback -1.91702 -1.16028 5.11838
upperback -3.58662 -1.59298 2.09189
thorax -2.70026 -0.933063 -0.699935
lowerneck 1.54044 2.25903 -0.377446
upperneck -4.12296 2.52509 -9.01527
head -1.45394 1.3725 -2.8638
rclavicle 1.44119e-014 9.54166e-015
rhumerus -9.2489 -37.2176 -6.39491
rradius 20.2868
rwrist 13.502
rhand -9.42464 -51.9802
rfingers 7.12502
rthumb 16.5376 -81.2954
lclavicle 1.44119e-014 9.54166e-015
lhumerus 5.71378 11.6822 3.87335
lradius 21.7705
lwrist 8.08604
lhand -11.457 -6.55545
lfingers 7.12502
lthumb 14.5803 22.9121
rfemur 10.7051 25.6764 10.0875
rtibia -5.90174
rfoot -41.0365 -37.5777
rtoes 23.5846
lfemur -2.18856 -4.99398 0.614237
ltibia -0.870364
lfoot -29.7555 24.0874
ltoes 55.395
307
root 9.53383 18.3014 -33.3369 306.527 -78.7775 -301.545
lowerback -1.91159 -1.14197 4.83139
upperback -3.62312 -1.56603 2.04127
thorax -2.73183 -0.913454 -0.59193
lowerneck 1.58722 2.32222 -0.257531
upperneck -4.151 2.59364 -9.31539
head -1.46455 1.40961 -2.99007
rclavicle -1.64991e-014 3.49861e-014
rhumerus -9.22372 -38.2407 -6.50598
rradius 20.2013
rwrist 14.0099
rhand -9.38563 -51.8938
rfingers 7.12502
rthumb 16.5752 -81.206
lclavicle -1.64991e-014 3.49861e-014
lhumerus 5.70906 11.2773 3.60738
lradius 21.8443
lwrist 8.60695
lhand -11.8073 -6.62969
lfingers 7.12502
lthumb 14.2426 22.8619
rfemur 10.6708 25.8982 9.76244
rtibia -6.02985
rfoot -41.4156 -37.838
rtoes 23.3339
lfemur -2.39794 -5.14596 0.431602
ltibia -0.906849
lfoot -31.4754 24.2742
ltoes 55.7138
308
root 9.53998 18.3004 -33.3207 307.15 -78.908 -302.134
lowerback -1.81851 -1.12654 5.00412
upperback -3.64462 -1.53898 2.08465
thorax -2.80965 -0.906249 -0.640699
lowerneck 1.56762 2.42592 -0.0899737
upperneck -4.09955 2.72955 -9.59217
head -1.43333 1.47573 -3.11557
rclavicle -9.14409e-015 3.18055e-014
rhumerus -9.17102 -39.1099 -6.70353
rradius 20.1448
rwrist 14.3015
rhand -9.42117 -51.8815
rfingers 7.12502
rthumb 16.541 -81.1965
lclavicle -9.14409e-015 3.18055e-014
lhumerus 5.58269 10.6929 3.2319
lradius 21.9781
lwrist 9.32977
lhand -12.1789 -6.78521
lfingers 7.12502
lthumb 13.8846 22.7313
rfemur 10.7285 26.2605 10.0165
rtibia -6.11213
rfoot -41.9757 -38.033
rtoes 23.7391
lfemur -2.60864 -4.49364 0.811966
ltibia -0.761445
lfoot -31.5358 25.1397
ltoes 56.5673
309
root 9.54583 18.2985 -33.2978 308.099 -79.067 -303.058
lowerback -1.74321 -1.14042 5.28808
upperback -3.65324 -1.55232 2.15894
thorax -2.86892 -0.921624 -0.719651
lowerneck 1.53691 2.5378 -0.0442499
upperneck -4.08894 2.87035 -9.8186
head -1.41425 1.54574 -3.20235
rclavicle -1.68967e-015 -3.49861e-014
rhumerus -8.95015 -39.6757 -6.95545
rradius 20.0592
rwrist 14.2715
rhand -9.55398 -52.0582
rfingers 7.12502
rthumb 16.4131 -81.3838
lclavicle -1.68967e-015 -3.49861e-014
lhumerus 5.37098 10.1756 2.849
lradius 22.1018
lwrist 10.0215
lhand -12.6455 -6.99763
lfingers 7.12502
lthumb 13.4349 22.5491
rfemur 10.7415 26.3955 10.265
rtibia -6.14669
rfoot -42.1661 -38.204
rtoes 23.5938
lfemur -2.80033 -3.98806 1.19859
ltibia -0.661451
lfoot -31.5223 25.7801
ltoes 57.063
310
root 9.55131 18.2983 -33.2732 308.804 -79.0986 -303.684
lowerback -1.74386 -1.15595 5.37809
upperback -3.6691 -1.57275 2.23222
thorax -2.88702 -0.934587 -0.693558
lowerneck 1.53516 2.6725 -0.0703183
upperneck -4.1123 3.0369 -10.0095
head -1.4107 1.63078 -3.26543
rclavicle 5.1684e-015 1.59028e-014
rhumerus -8.7048 -40.1165 -7.13918
rradius 19.9819
rwrist 14.0678
rhand -9.71222 -52.2261
rfingers 7.12502
rthumb 16.2608 -81.5642
lclavicle 5.1684e-015 1.59028e-014
lhumerus 5.29491 10.4113 2.79189
lradius 22.086
lwrist 10.0003
lhand -12.8158 -6.88531
lfingers 7.12502
lthumb 13.2708 22.6722
rfemur 10.7172 26.5865 10.3309
rtibia -6.18404
rfoot -42.5614 -38.3176
rtoes 23.6317
lfemur -2.99685 -4.18896 1.36687
ltibia -0.71768
lfoot -31.6939 26.5508
ltoes 56.9078
311
root 9.55678 18.2979 -33.2497 309.791 -79.221 -304.614
lowerback -1.73836 -1.12818 5.48825
upperback -3.68073 -1.53534 2.3642
thorax -2.90015 -0.918808 -0.618784
lowerneck 1.64334 2.78603 -0.183637
upperneck -4.19866 3.16397 -10.1621
head -1.45079 1.70182 -3.30285
rclavicle 4.07509e-015 -4.45278e-014
rhumerus -8.61743 -40.077 -7.15419
rradius 19.9817
rwrist 13.2544
rhand -10.0748 -52.1367
rfingers 7.12502
rthumb 15.9117 -81.5031
lclavicle 4.07509e-015 -4.45278e-014
lhumerus 5.28708 10.7674 2.88513
lradius 22.0536
lwrist 9.83526
lhand -12.7656 -6.64943
lfingers 7.12502
lthumb 13.3191 22.9049
rfemur 10.7526 27.0169 10.6108
rtibia -6.21782
rfoot -43.4623 -38.3634
rtoes 24.5617
lfemur -3.21504 -4.07017 1.6949
ltibia -0.687299
lfoot -31.5282 27.3631
ltoes 56.9686
312
root 9.56214 18.2959 -33.2255 311.142 -79.4765 -305.938
lowerback -1.70464 -1.08367 5.78201
upperback -3.6694 -1.47469 2.48076
thorax -2.91051 -0.896345 -0.661716
lowerneck 1.65983 2.88635 -0.2279
upperneck -4.20718 3.28333 -10.3622
head -1.44813 1.76374 -3.36566
rclavicle 9.34288e-015 -4.45278e-014
rhumerus -8.58386 -40.1359 -7.23315
rradius 19.9668
rwrist 12.4214
rhand -10.9185 -51.7143
rfingers 7.12502
rthumb 15.099 -81.1436
lclavicle 9.34288e-015 -4.45278e-014
lhumerus 5.28065 10.7098 2.73696
lradius 22.0645
lwrist 10.027
lhand -12.7958 -6.60823
lfingers 7.12502
lthumb 13.29 22.948
rfemur 10.7932 27.482 11.0808
rtibia -6.25657
rfoot -44.249 -38.5637
rtoes 24.8987
lfemur -3.43018 -3.42862 2.22587
ltibia -0.548938
lfoot -31.4797 27.7201
ltoes 57.2555
313
root 9.56401 18.2975 -33.2101 310.231 -79.0225 -304.845
lowerback -1.83371 -1.08925 5.14064
upperback -3.68908 -1.48955 2.33822
thorax -2.84228 -0.885378 -0.45542
lowerneck 1.55008 2.98354 -0.0629808
upperneck -4.07141 3.42067 -10.6651
head -1.37029 1.82496 -3.49689
rclavicle 3.37934e-015 1.27222e-014
rhumerus -8.57086 -40.558 -7.33221
rradius 19.8669
rwrist 12.0595
rhand -11.6112 -51.4422
rfingers 7.12502
rthumb 14.4316 -80.9205
lclavicle 3.37934e-015 1.27222e-014
lhumerus 5.38333 10.769 2.57235
lradius 22.0388
lwrist 10.1302
lhand -12.8683 -6.53682
lfingers 7.12502
lthumb 13.2202 23.024
rfemur 10.6857 27.5061 10.3689
rtibia -6.40178
rfoot -44.3688 -38.8661
rtoes 24.308
lfemur -3.75845 -3.3419 1.66934
ltibia -0.471125
lfoot -31.8362 27.9364
ltoes 57.3026
314
root 9.56714 18.2927 -33.1849 311.342 -79.3789 -305.967
lowerback -1.77555 -0.990472 5.53755
upperback -3.67901 -1.35564 2.37725
thorax -2.86912 -0.830249 -0.635761
lowerneck 1.57714 3.05591 0.13539
upperneck -3.99836 3.51941 -10.9217
head -1.33894 1.87247 -3.6235
rclavicle 7.25564e-015 -1.27222e-014
rhumerus -8.67766 -40.7931 -7.29812
rradius 19.761
rwrist 11.6541
rhand -11.8839 -51.491
rfingers 7.12502
rthumb 14.1689 -80.9878
lclavicle 7.25564e-015 -1.27222e-014
lhumerus 5.49261 10.4261 2.36656
lradius 22.1006
lwrist 10.6023
lhand -13.1594 -6.44774
lfingers 7.12502
lthumb 12.9395 23.1311
rfemur 10.5873 27.4121 10.7898
rtibia -6.32269
rfoot -43.9156 -39.1662
rtoes 23.2751
lfemur -3.75897 -3.60962 2.26212
ltibia -0.606815
lfoot -32.9286 27.7542
ltoes 57.4702
